<?xml version="1.0" standalone="no"?>
<!DOCTYPE svg PUBLIC "-//W3C//DTD SVG 1.1//EN" "http://www.w3.org/Graphics/SVG/1.1/DTD/svg11.dtd" >
<svg xmlns="http://www.w3.org/2000/svg" xmlns:xlink="http://www.w3.org/1999/xlink" version="1.1">
<metadata>
Created by FontForge 20201107 at Sun Nov  9 05:14:38 2025
 By 
Copyright (c) 2025, Admin
</metadata>
<defs>
<font id="Untitled1" horiz-adv-x="1000" >
  <font-face 
    font-family="Untitled1"
    font-weight="400"
    font-stretch="normal"
    units-per-em="1000"
    panose-1="2 0 5 9 0 0 0 0 0 0"
    ascent="800"
    descent="-200"
    x-height="475"
    cap-height="531"
    bbox="33 -37 828 666"
    underline-thickness="50"
    underline-position="-100"
    unicode-range="U+0008-00A5"
  />
<missing-glyph 
d="M33 0v666h265v-666h-265zM66 33h199v600h-199v-600z" />
    <glyph glyph-name=".notdef" unicode="&#xa5;" 
d="M33 0v666h265v-666h-265zM66 33h199v600h-199v-600z" />
    <glyph glyph-name=".notdef" unicode="&#xe01e;" 
d="M33 0v666h265v-666h-265zM66 33h199v600h-199v-600z" />
    <glyph glyph-name=".notdef" unicode="&#x25ca;" 
d="M33 0v666h265v-666h-265zM66 33h199v600h-199v-600z" />
    <glyph glyph-name=".notdef" unicode="&#x2260;" 
d="M33 0v666h265v-666h-265zM66 33h199v600h-199v-600z" />
    <glyph glyph-name=".notdef" unicode="&#x2248;" 
d="M33 0v666h265v-666h-265zM66 33h199v600h-199v-600z" />
    <glyph glyph-name=".notdef" unicode="&#x222b;" 
d="M33 0v666h265v-666h-265zM66 33h199v600h-199v-600z" />
    <glyph glyph-name=".notdef" unicode="&#x221e;" 
d="M33 0v666h265v-666h-265zM66 33h199v600h-199v-600z" />
    <glyph glyph-name=".notdef" unicode="&#x221a;" 
d="M33 0v666h265v-666h-265zM66 33h199v600h-199v-600z" />
    <glyph glyph-name=".notdef" unicode="&#x2211;" 
d="M33 0v666h265v-666h-265zM66 33h199v600h-199v-600z" />
    <glyph glyph-name=".notdef" unicode="&#x220f;" 
d="M33 0v666h265v-666h-265zM66 33h199v600h-199v-600z" />
    <glyph glyph-name=".notdef" unicode="&#x2202;" 
d="M33 0v666h265v-666h-265zM66 33h199v600h-199v-600z" />
    <glyph glyph-name=".notdef" unicode="&#x2122;" 
d="M33 0v666h265v-666h-265zM66 33h199v600h-199v-600z" />
    <glyph glyph-name=".notdef" unicode="&#x20ac;" 
d="M33 0v666h265v-666h-265zM66 33h199v600h-199v-600z" />
    <glyph glyph-name=".notdef" unicode="&#x2044;" 
d="M33 0v666h265v-666h-265zM66 33h199v600h-199v-600z" />
    <glyph glyph-name=".notdef" unicode="&#x2030;" 
d="M33 0v666h265v-666h-265zM66 33h199v600h-199v-600z" />
    <glyph glyph-name=".notdef" unicode="&#x2026;" 
d="M33 0v666h265v-666h-265zM66 33h199v600h-199v-600z" />
    <glyph glyph-name=".notdef" unicode="&#x3c0;" 
d="M33 0v666h265v-666h-265zM66 33h199v600h-199v-600z" />
    <glyph glyph-name=".notdef" unicode="&#x3a9;" 
d="M33 0v666h265v-666h-265zM66 33h199v600h-199v-600z" />
    <glyph glyph-name=".notdef" unicode="&#x394;" 
d="M33 0v666h265v-666h-265zM66 33h199v600h-199v-600z" />
    <glyph glyph-name=".notdef" unicode="&#x192;" 
d="M33 0v666h265v-666h-265zM66 33h199v600h-199v-600z" />
    <glyph glyph-name=".notdef" unicode="&#x178;" 
d="M33 0v666h265v-666h-265zM66 33h199v600h-199v-600z" />
    <glyph glyph-name=".notdef" unicode="&#x131;" 
d="M33 0v666h265v-666h-265zM66 33h199v600h-199v-600z" />
    <glyph glyph-name=".notdef" unicode="&#xff;" 
d="M33 0v666h265v-666h-265zM66 33h199v600h-199v-600z" />
    <glyph glyph-name=".null" horiz-adv-x="0" 
 />
    <glyph glyph-name=".null" horiz-adv-x="0" 
 />
    <glyph glyph-name=".null" horiz-adv-x="0" 
 />
    <glyph glyph-name="nonmarkingreturn" unicode="&#x9;" 
 />
    <glyph glyph-name="nonmarkingreturn" unicode="&#xd;" 
 />
    <glyph glyph-name="exclam" unicode="!" 
d="M407 150l-20 20l-14 14l-5 5q4 4 42 21q42 18 88 26q19 4 20 4l-15 15l-41.5 41.5l-57.5 57.5l-115 115l48 48l49 49l174 -175l175 -175l-39 -39l-40 -40l-10 3q-20 6 -40 9q-26 3 -51 -1q-46 -6 -99 -32q-9 -5 -9.5 -5t-39.5 39z" />
    <glyph glyph-name="numbersign" unicode="#" 
d="M500 67q-29 4 -57 18l-11 6l2 3q3 4 23 32q4 6 10.5 16t22.5 33l16 22l7 -5q27 -18 46 -16t35 18q8 9 11 15q14 29 -10 53q-16 16 -39 16q-19 0 -35 -11q-12 -8 -19 -19q-2 -2 -2.5 -2t-5.5 4t-17 15q-49 42 -49.5 43t5.5 4q38 22 47 49q7 21 -3 43q-7 16 -22.5 29.5
t-31.5 18.5q-15 5 -31 2q-16 -4 -30 -18q-9 -9 -13 -17q-6 -12 -6 -25q0 -20 16 -47l6 -9l-3 -2q-3 -2 -17 -13q-37 -28 -45 -35q-7 -4 -15 -11q-17 -13 -24 -18q-3 -3 -4 -2q-3 2 -12 23q-31 75 2 142q14 28 44.5 61t62.5 55q72 50 149 20q27 -11 49 -30t32 -41
q12 -23 11 -50q-1 -19 -6 -33q-7 -18 -14 -27l-2 -3l3 1q24 5 38 6q49 2 81 -31q27 -27 32 -64q2 -15 0 -32q-7 -51 -66 -112q-23 -24 -40 -36q-40 -31 -77 -38q-23 -4 -44 -1z" />
    <glyph glyph-name="dollar" unicode="$" 
d="M647.5 166.5q-29.5 2.5 -89.5 7.5l-207 18l-49 5l-39 39l-39 39l86 87l87 87l-32 32l-32 32l42 42l42 42l32 -32l32 -33l21 22l22 22l37 -37l37 -37l-22 -22l-21 -22l105 -105l106 -106l-42 -42q-41 -41 -44 -41t-32.5 2.5zM526 321l-55 54l-45 -46l-32.5 -32.5
t-12.5 -13.5l18.5 -1.5t23 -2t40 -3.5t72.5 -6t41 -3h4z" />
    <glyph glyph-name="percent" unicode="%" 
d="M537 54.5q-14 9.5 -16 11.5t-10.5 8t-13 9t-22.5 16q-50 36 -57 41q-5 4 -17 12q-2 2 -8 6t-11.5 8t-9.5 7q-17 13 -26 19t-8.5 7t32.5 43.5t34 45.5l2 3h11q33 0 56 18q20 17 25 39.5t-7 44.5q-9 15 -25 31q-29 28 -55 30q-18 2 -34 -6q-7 -3 -15.5 -12t-12.5 -16
q-6 -13 -6 -28q0 -22 15 -45l4 -5l-54 -43q-53 -43 -54 -43l-7 15t-10 23q-7 22 -8 46q-1 17 1 27q5 45 40 91q16 21 37 41q61 59 125 65q58 5 114 -32q29 -20 48 -48q16 -25 22 -52q2 -10 2 -30.5t-2 -31.5q-13 -54 -60 -95q-25 -23 -58 -35q-7 -3 -8 -3.5t2.5 -2.5
t21.5 -16q21 -15 31 -22l3 -3l77 77l77 77l38 -38l38 -39l-113 -112q-113 -113 -113.5 -113t-14.5 9.5z" />
    <glyph glyph-name="ampersand" unicode="&#x26;" 
d="M474 47l-41 41l85 84l42.5 42.5t30.5 31t11 12.5q-1 0 -7 1q-26 2 -60 8q-53 10 -101 26q-89 29 -192 106q-13 9 -13 9.5t6.5 7l17.5 17.5l23 23l48 48l4 -4q25 -23 69 -53q50 -33 109 -58q81 -33 153 -37q10 -1 11 -1.5t30 -0.5h29l32 -32l32 -33l-139 -139
q-139 -139 -139.5 -139t-40.5 40z" />
    <glyph glyph-name="parenleft" unicode="(" 
d="M493 66q-28 4 -53 17q-30 16 -53.5 43.5t-33.5 56.5q-23 72 16 132q21 32 52 50.5t70 18.5h5t3 0.5l1 0.5q-1 4 -40 32q-40 29 -67 29q-21 0 -37 -16q-14 -14 -14 -32q0 -14 13 -36q2 -4 1 -4q-2 -2 -48 -38q-18 -14 -24.5 -19t-17 -13t-13.5 -10l-3 -2l-4 10
q-10 21 -15 43q-2 10 -2 28t3 29q9 40 43 79q62 73 132 85q63 11 127 -25q43 -23 89 -69q76 -77 92 -150q8 -40 -1 -74q-10 -37 -40 -75q-8 -10 -26.5 -28.5t-27.5 -24.5q-37 -29 -75 -37q-26 -6 -52 -1zM564 175q14 3 27 16q18 19 18 46q0 31 -28 60q-23 24 -47 29
q-23 5 -42 -5q-17 -9 -25.5 -24.5t-7.5 -33.5q2 -29 31 -59q26 -26 51 -30q11 -2 23 1zM231 475q1 3 2.5 5.5t1.5 3.5t20.5 21.5t21.5 20.5t7 5.5t8.5 6.5t5 2.5t2.5 1t2 1t4 1.5q6 0 -4 -12q-4 -5 -4 -5.5t-7 -7.5t-7 -6q0 -1 -7 -8t-8 -7t-8 -7q-13 -13 -21 -18
q-2 -1 -6 -1q-3 0 -3.5 0.5t0.5 2.5z" />
    <glyph glyph-name="asterisk" unicode="*" 
d="M497 70q-23 5 -43 18q-5 4 -16 15t-15 16q-14 20 -18 44q-4 22 6 57q0 1 -2 1q-2 -1 -10 -4q-37 -13 -71 -4q-39 10 -70 49q-40 50 -32 105q7 50 59 109q50 57 101 81q29 14 55 16q46 2 87 -25q25 -16 41 -41q25 -39 18 -86q-3 -22 -7 -29q-1 -1 0 -2q1 0 3 1q3 0 15 2
q74 9 114 -51q18 -27 18 -62.5t-18 -69.5q-19 -35 -57 -74q-31 -31 -59 -46q-22 -13 -47 -18q-9 -2 -27 -2.5t-25 0.5zM571 181q15 3 28 15.5t17 27.5q5 22 -7 40q-11 17 -27 24.5t-32 4.5q-14 -3 -27 -16q-17 -17 -18 -37q-2 -24 17 -43q22 -22 49 -16zM435 316q13 3 25 12
q15 12 21 33q1 5 1 15.5t-2 16.5q-4 19 -20 35.5t-36 22.5q-18 5 -35 0q-15 -3 -26.5 -14.5t-15.5 -27.5q-4 -17 1 -34q5 -20 22.5 -37t37.5 -21q13 -3 27 -1zM649 400q-6 2 -18 14.5t-12 14t-1.5 1.5t-1.5 7.5t2 12.5q5 8 14 11t18 -1q5 -2 15 -12t13 -15q5 -11 0 -21
t-9 -10q-1 0 -4 -2q-7 -4 -16 0z" />
    <glyph glyph-name="plus" unicode="+" 
d="M459 158q-59 4 -101 18q-45 14 -71 41q-36 36 -46 102q-2 13 -2 44t2 44q7 48 29 79q38 54 115 72q53 13 121 12.5t119 -13.5t79 -39q44 -40 55 -112q2 -14 2 -46q0 -41 -6 -66q-8 -31 -25 -56q-18 -25 -51 -45q-40 -25 -123 -34q-13 -1 -48 -1.5t-49 0.5zM543 297
q18 1 32 3q36 4 36 6l-100 45h-1h-1l-1 1h-1l-1 1h-1l-1 1h-1h-1v1h-1l-1 1h-1h-1l-1 1h-1l-1 1h-1l-1 1h-1h-1l-1 1h-1l-1 1h-1l-2 1q-114 50 -117 50q-4 1 -19 -11q-13 -12 -15 -31t8 -34q22 -34 107 -39q17 0 47 -0.5t47 0.5zM647 321q18 14 21 36q5 37 -29 55
q-24 13 -80 17q-15 1 -56.5 1t-56.5 -1q-48 -4 -48 -7l119.5 -52.5t121.5 -52.5t8 4z" />
    <glyph glyph-name="comma" unicode="," 
d="M380 157q-57 5 -93 42q-38 37 -47 111q-1 15 -1 52t1 51q12 89 60 124q41 31 90 32q46 2 81 -23q28 -18 44 -51q4 -7 4 -6.5t7 10.5q22 28 46 41q27 14 59 13q15 -1 24 -3q34 -9 60 -36q39 -41 46 -125q3 -46 -2 -78q-9 -57 -38 -93q-42 -52 -106 -46q-58 6 -91 59l-5 9
l-6 -12q-24 -49 -71 -65q-10 -3 -19 -5q-22 -3 -43 -1zM425 299q33 9 46 37q6 12 6 27q-1 39 -39 57q-17 9 -38 8q-20 0 -38 -8q-9 -5 -18 -14q-19 -19 -19 -43q0 -21 14 -38q18 -23 46 -28q20 -3 40 2zM634 306q32 8 40 39q4 16 0 32q-5 19 -19 30q-11 8 -24 11
q-24 5 -43.5 -5.5t-25.5 -32.5q-5 -15 0 -33q8 -34 40 -41q6 -2 16.5 -2t15.5 2zM518 546q-12 4 -14.5 17.5t6.5 22.5q7 8 30 7q16 0 21 -1q15 -5 15 -23t-15 -23q-5 -2 -22 -2t-21 2z" />
    <glyph glyph-name="hyphen" unicode="-" 
d="M425 38q-23 1 -49 13q-57 27 -102 88q-32 43 -34 92q0 20 3 39q14 70 103 158q79 77 143 94q66 17 134 -31q16 -12 32 -27q55 -53 67 -107q7 -37 -5 -76q-11 -35 -42 -77.5t-72 -80.5q-75 -68 -137 -82q-19 -5 -33 -4q-4 1 -8 1zM416 156q15 2 35 15q23 15 59 49
q57 54 81 91l5 9v-1h-1q-1 -1 -10 -4t-11 -4q-25 -10 -28 -11q-1 0 -3 -1q-5 -3 -7 -3q-1 0 -3.5 -1.5t-3.5 -1.5t-3 -1q-3 -1 -5 -2t-5 -2q-19 -8 -22 -8q-1 0 -1 -1t-3 -1.5t-10.5 -3.5t-7.5 -2.5t-2 -1.5q-7 -3 -9 -4q-2 0 -13 -5q-26 -10 -28 -11q-1 0 -3 -1
q-3 -1 -5 -2l-3 -1q-4 -1 -20 -8q-18 -8 -21 -8q-2 0 -2 -1t-3 -1.5t-4 -1.5q-5 -5 -5 -25q1 -10 4 -17q6 -13 19 -21q16 -11 39 -7zM379 255q5 2 6 2q3 1 8 4q3 1 3 0.5t2.5 1t8 3.5t8.5 3q3 2 18 7q10 4 12 5q2 0 4.5 1.5t3.5 1.5q5 1 14 6q3 1 3 0.5t2.5 1t15 6.5t23 9
t12 4.5l3 1t10.5 4t10.5 4.5t2.5 1t5 1.5t12 5t10 4t3 1.5q2 0 20 8q2 1 5 1q6 2 6 18t-8 27q-10 16 -27 22q-13 5 -29 1q-29 -7 -83 -56q-53 -49 -85 -92q-7 -10 -5 -10q1 0 6 2z" />
    <glyph glyph-name="period" unicode="." 
d="M584 153q-78 9 -121 73q-16 23 -22 53q-6 27 -2 56q5 45 40 83l8 8h-4q-14 0 -50 -6q-53 -8 -71 -28q-15 -16 -15.5 -37t13.5 -35q10 -10 31 -16q9 -2 9 -3q0 -3 -9 -70t-9 -68q-2 -2 -30 11q-41 20 -64 54q-20 31 -26 79q-2 10 -2 41.5t2 39.5q6 40 20 68q25 50 71.5 77
t121.5 34q15 1 51.5 1t50.5 -1q60 -7 99 -27q51 -24 77 -64q21 -32 28 -84q2 -12 2 -43t-1 -42q-4 -24 -10 -42q-15 -46 -51.5 -75.5t-87.5 -36.5q-25 -3 -49 0zM643.5 288q8.5 2 17.5 7q24 11 32 35q10 28 -6 54q-15 25 -49 34q-9 3 -29.5 3t-30.5 -3q-42 -11 -52 -49
q-4 -17 0 -33q9 -33 47 -46q15 -4 42 -4q20 0 28.5 2zM220 296q-4 10 -3 48t6 51q2 5 4 6q3 1 5 -14q1 -11 0.5 -43.5t-2.5 -41.5q-2 -10 -7 -10q-1 0 -3 4z" />
    <glyph glyph-name="zero" unicode="0" 
d="M478 12q-4 0 -15 1q-81 8 -126 70q-16 22 -25 51q-19 57 -19 143q0 132 44 192q36 48 107 62q26 5 60 5q59 0 97 -19q33 -15 55 -43q27 -33 40 -90q14 -64 10 -137q-5 -111 -43 -168q-15 -22 -36 -36q-35 -23 -86 -29q-8 -2 -32 -2.5t-31 0.5zM512 108q20 5 33 24
q13 21 18 58q4 28 4 78t-3 81q-3 24 -6 35q0 1 -2 -3.5t-8.5 -18t-16.5 -36t-27 -62.5q-53 -122 -53 -123q0 -6 12 -19q21 -20 49 -14zM494 292l53 121l-4 6q-21 30 -57 22q-31 -7 -42.5 -47t-10.5 -131q1 -58 7 -87q1 -6 1 -5.5t53 121.5z" />
    <glyph glyph-name="one" unicode="1" 
d="M503 189q0 168 -1 168q-3 -2 -16 -11q-38 -26 -78 -43q-46 -18 -53 -18v57v58l10 4q60 20 95 47q40 30 64 75l5 10h58h58v-258v-258h-71h-71v169z" />
    <glyph glyph-name="two" unicode="2" 
d="M289 24q10 59 38 105q36 58 141 137q70 52 86 78q13 20 13 39q0 23 -16 39q-19 19 -48 17.5t-44 -22.5q-12 -15 -17 -43q-2 -10 -2.5 -10.5t-70 5t-69.5 6.5q-3 2 6 37q20 75 83 105q52 24 146 18q48 -3 78.5 -14t53.5 -34q43 -43 40 -104q-1 -33 -15 -63
q-14 -29 -42 -57q-28 -27 -80 -64q-46 -33 -72 -57l-7 -7h110h111v-57v-58h-212h-212z" />
    <glyph glyph-name="three" unicode="3" 
d="M472 12q-41 3 -70 13q-18 6 -33 16q-47 30 -71 89q-8 22 -7 23t70.5 10l69.5 9l3 -10q13 -56 53 -64q37 -6 61 19q21 23 19 62q-2 52 -44 65q-8 3 -22 3q-17 0 -38 -5l-8 -2l3.5 50l3.5 50l5 -1q36 -5 59 17q18 18 19 41q0 22 -13 36q-11 12 -30.5 14.5t-36.5 -5.5
q-14 -7 -21 -20q-8 -14 -11 -34q-1 -5 -1.5 -6t-2.5 -1q-3 1 -66 12t-64 11q-2 0 4 15q23 68 81 96q27 13 70 19q13 2 42.5 2t44.5 -2q58 -7 89 -28q28 -19 42 -48.5t11 -61.5q-5 -55 -63 -91l-9 -5l11 -3q22 -6 35 -14q39 -25 50 -72q2 -10 2 -29.5t-2 -29.5
q-8 -39 -30 -70q-15 -22 -38 -37q-42 -28 -106 -33q-28 -2 -61 0z" />
    <glyph glyph-name="four" unicode="4" 
d="M536 67v48h-129h-128v58v58l128 152l128 153h62h61v-156v-156h32h31v-54v-55h-31h-32v-48v-47h-61h-61v47zM536 304q0 80 -0.5 80t-66.5 -77.5t-68 -80.5l-2 -2h69h68v80z" />
    <glyph glyph-name="five" unicode="5" 
d="M471 12q-70 5 -112 35q-32 23 -51 57q-5 9 -12.5 27.5t-6.5 20.5q1 0 71.5 8t71 7.5t1.5 -7.5q5 -28 22.5 -44.5t42.5 -18.5q28 -1 47 19q9 8 13 17q11 22 11 54q0 31 -10 52q-12 25 -41 33q-22 6 -45 -2q-19 -6 -36 -23l-10 -9l-60 8q-59 9 -59 10.5t22 135.5t22 134.5
t167 0.5h167v-56v-56h-113h-113l-6 -38q-6 -37 -6 -37.5t9 3.5q61 26 124 14q36 -7 64 -27q21 -15 37 -37q23 -32 27.5 -73t-9.5 -83q-9 -29 -25 -51q-55 -76 -176 -75q-17 0 -28 1z" />
    <glyph glyph-name="six" unicode="6" 
d="M467 -25q-22 1 -26 5l-2 2l2 1q6 4 29 4q56 2 73 -2q4 -1 6.5 -2.5t0.5 -3.5q-4 -4 -41 -5q-29 0 -42 1zM484 12q-79 7 -123 48q-24 24 -41 58q-26 52 -28 132q-6 178 82 245q40 31 98 39q13 2 40 2t41 -2q65 -8 102 -46q16 -16 27 -36q9 -17 14 -34q2 -5 0 -5.5
t-66.5 -8.5t-68.5 -8h-3l-2 9q-5 21 -16 31q-14 14 -35.5 13t-36.5 -16q-21 -20 -29 -76q-6 -40 -5 -46q1 -2 9 6q35 32 76 39q10 2 28.5 2t28.5 -2q39 -8 70 -32q47 -38 59 -96q13 -66 -15 -124q-39 -77 -136 -90q-32 -5 -70 -2zM525 101q15 4 26.5 14.5t17.5 25.5
q6 18 6 47q-1 29 -10 47q-10 20 -29 30q-29 14 -58 -1q-8 -4 -16.5 -12.5t-13.5 -17.5q-8 -18 -8 -47q0 -22 2 -29q6 -23 19 -37q27 -30 64 -20z" />
    <glyph glyph-name="seven" unicode="7" 
d="M380 21.5q0 1.5 3 20.5q18 115 53 194q34 77 102 163l7 9h-126h-125v60v59h206h206v-47v-47l-20 -20q-28 -28 -49 -56q-66 -88 -97 -209q-14 -56 -19 -116q0 -8 -1 -10v-2h-70q-70 0 -70 1.5z" />
    <glyph glyph-name="eight" unicode="8" 
d="M456 12q-65 4 -102 25q-56 32 -71 99q-2 11 -2 33q0 29 8 51q16 46 67 68l9 5l-3 1q-18 10 -31 22q-23 22 -32 55q-5 22 -2 46q5 37 32 65q54 57 163 54q101 -3 148 -48q30 -29 37 -67q3 -23 -1 -43q-8 -38 -35 -63q-14 -14 -26 -21q-2 -1 0 -2q10 -4 26 -16t28 -28
q20 -26 24.5 -60t-6.5 -68q-15 -46 -50 -72q-58 -44 -181 -36zM506 101q14 5 26 17.5t17 27.5q12 39 -7 71q-9 16 -25 25q-14 8 -31 8q-11 0 -17 -2q-27 -9 -39 -34q-7 -13 -9 -30q-2 -27 8 -48q12 -23 36 -33q20 -9 41 -2zM507 337q27 8 35 37q4 15 1 32q-4 15 -14 26
q-16 17 -40 18q-26 1 -42 -14q-17 -16 -18 -39q-2 -23 10 -40t34 -22q18 -4 34 2zM684 278q-10 3 -14 14q-1 6 -1 21.5t1 20.5q4 13 18 16t23 -7q7 -7 8 -29q0 -16 -2 -21q-3 -10 -12.5 -14.5t-20.5 -0.5z" />
    <glyph glyph-name="nine" unicode="9" 
d="M446 -31q-11 2 -13 4t1 4.5t7 3.5q9 3 46 3.5t45 -1.5q5 -1 7 -3q4 -2 -5 -6q-6 -2 -31 -5q-8 -1 -29.5 -1t-27.5 1zM460 12q-105 8 -146 91q-2 5 -5.5 12.5t-5 13t-1 5.5t67 8.5t69.5 9.5q3 0 3 -2q0 -9 9 -26q7 -15 22 -21.5t33 -2.5q33 8 46 49q8 24 13 74
q2 15 2 15.5t-7 -5.5q-43 -41 -100 -44q-70 -3 -119 46q-37 36 -46 86q-10 51 6 99q18 56 65 86q32 21 81 28q13 2 40 2t41 -2q42 -6 72 -20q40 -20 66.5 -61t36.5 -96q12 -73 1 -152q-13 -94 -65 -142q-64 -59 -179 -51zM513 279q38 12 46 57q5 25 0 50q-6 25 -22 42
q-18 18 -43 20q-10 0 -17 -1q-32 -7 -44 -38q-8 -18 -8 -43t7 -45q12 -36 46 -44q17 -4 35 2z" />
    <glyph glyph-name="less" unicode="&#x3c;" 
d="M534 26q-24 5 -40 12q-52 24 -75 72q-20 41 -2 92q4 9 3.5 9t-5.5 -1q-39 -11 -72 1q-14 4 -28 15q-23 18 -36 42q-22 46 -1 104q9 26 29 51q28 37 66 66q42 32 79 39q63 13 108 -30q27 -26 32 -64q1 -6 0.5 -22.5t-1.5 -23.5t-1 -7.5t6 1.5q37 12 70 4q33 -7 59 -31
t38 -58q8 -22 9 -47q1 -23 -6 -44q-20 -59 -95 -124q-31 -28 -58 -41q-29 -14 -60 -15h-19zM604 147q19 3 32 17q11 11 15 26q4 17 -1 33q-4 19 -18.5 34.5t-34.5 22.5q-7 2 -20.5 2t-20.5 -2q-20 -6 -31 -23q-12 -18 -10 -40t18 -41q30 -36 71 -29zM443 305q20 3 36 20
q14 16 14 36q0 22 -19 40q-30 29 -65 9q-6 -3 -13.5 -11t-10.5 -14q-13 -27 3 -51q12 -20 31 -26q7 -3 16 -4q1 0 8 1zM631 417q-4 2 -17.5 15.5t-13 14t-1 1t-1.5 7.5t2 12q4 7 11 11q5 3 10 3q11 0 26 -15t15 -26q0 -6 -2 -11q-1 -2 -4.5 -5.5l-4.5 -4.5q-1 0 -4 -1
q-8 -3 -16 -1z" />
    <glyph glyph-name="equal" unicode="=" 
d="M448 77q-35 6 -66 26q-26 18 -54 49q-50 56 -54 114q-3 41 19 84q25 51 85 109q56 56 108 82q31 15 65 18q45 4 86 -18q26 -14 53.5 -40.5t46.5 -55.5q16 -27 23 -56q1 -8 1 -25.5t-2 -28.5q-7 -31 -26 -63q-22 -39 -63.5 -82.5t-83.5 -71.5q-48 -33 -87 -40
q-8 -2 -26 -2t-25 1zM445 190q8 1 9 2t4 8t3.5 8t0.5 2.5t1 4.5q7 14 6 15q1 0 2 3t2 5l1 2l0.5 1.5t1 3.5t1.5 4l2 4t1 3v1l1 2q1 1 2.5 6t5 14t4.5 11t2 5q6 13 6 15l1 2.5t0.5 2.5t1.5 2q8 15 8 20q0 1 1 4t4.5 12t5 11.5t1 2.5t0.5 3q5 9 6 14l1.5 3t2 5t5.5 14t5 14
t1 3l2 5q-1 0 -7 -4q-32 -23 -75 -67t-62 -73q-28 -43 -7 -72q14 -20 40 -23q1 0 9 1zM490 209q27 19 66.5 57.5t62.5 68.5q46 61 10 96q-16 17 -40 14q-11 -1 -13.5 -2.5t-4.5 -7.5q-3 -7 -3 -7.5t-1 -2.5q-1 -3 -2 -5q-1 -3 -1 -4q-1 -4 -5 -12q-1 -2 -1.5 -5t-1.5 -3
t-1 -1.5t-3.5 -9.5t-3.5 -9t-1.5 -4t-1.5 -5q-7 -16 -9 -22q-1 -2 -1 -3q-1 -3 -9 -21q-1 -3 -2 -5.5l-3 -7.5t-2 -6q-1 -3 -4 -8q-1 -2 -1 -4q-1 -3 -11 -27q-5 -12 -5 -14q0 -1 -1 -3.5t-2 -4.5t-2 -5l-1 -3q-1 -3 -6 -15l-2 -4q0 -1 -1 -3l-2 -7h1q2 1 8 5z" />
    <glyph glyph-name="greater" unicode="&#x3e;" 
d="M547 29q-23 2 -46 11q-25 9 -25 11q0 1 13 17q12 16 23 31l20 25q23 29 26 34l7 -4q31 -19 56 -5q16 10 22 31q4 13 0 30q-5 25 -48 79l-11 13v-5q-2 -53 -26 -86q-16 -22 -38 -38q-41 -29 -93 -27q-34 1 -63 16q-56 27 -84 84q-42 88 20 170q26 35 62 63q31 23 59 32
q57 18 122 -7q59 -24 125 -94q67 -71 81 -139q3 -11 3 -32q0 -27 -6 -48q-18 -61 -82 -116q-39 -34 -77 -42q-20 -5 -32 -4h-8zM483 261q24 7 37 31q16 31 -2 63q-14 25 -39 41q-37 25 -72 7q-8 -4 -16 -12q-11 -11 -16 -24q-2 -6 -2 -17.5t3 -17.5q7 -21 27 -41
q24 -24 48 -30q15 -4 32 0zM671.5 34q-0.5 3 0.5 6q3 7 19 22q7 7 6.5 7.5t14.5 15.5l7 7l5 5l2 2q0 -1 6 3.5t9 4.5t0 -7t-10 -15q-6 -6 -6 -7.5t-20.5 -22t-21.5 -20.5t-3.5 -1.5t-5 -2t-3 2.5z" />
    <glyph glyph-name="at" unicode="@" 
d="M501 65q-24 4 -51 18q-7 3 -23 13.5t-17 11.5t38 47q10 11 19 21q9 11 17 20t10 13l3 3l8 -5q16 -11 29 -16q16 -6 32 -2t28.5 17t16.5 29q4 14 0 28q-7 22 -29 33q-32 15 -123 2q-77 -11 -125 -11q-42 0 -74 8q-35 8 -64 25q-20 11 -31 20l-3 2l144 144l143 143l39 -39
l39 -39l-74 -75l-75 -75l18 1q26 1 77 10q61 10 97 10q45 1 79 -14q32 -13 56 -42q33 -38 30 -90q-1 -35 -20.5 -68t-61.5 -74q-57 -55 -106 -66q-24 -6 -46 -3z" />
    <glyph glyph-name="A" unicode="A" 
d="M376 104l-39 39l3 11q9 30 9 64q0 29 -6 54q-9 32 -26 68l-7 14l39 38q39 39 40 38.5t10 -18.5q29 -59 38 -117l2 -13l15.5 15t42 41.5l57.5 57.5l115 114l48 -48l48 -48l-175 -175l-174 -175z" />
    <glyph glyph-name="B" unicode="B" 
d="M522 31q-18 2 -38 11q-28 10 -28 13q0 1 27 35t42 52q14 17 15 18.5t7 -2.5q38 -25 72 -8q8 3 17 12t12 16q16 33 -9 70q-4 6 -17 19t-20 18q-29 20 -57 13q-13 -3 -25.5 -14t-19.5 -23q-9 -19 -9 -43v-11l-27 -20q-27 -20 -45.5 -34t-19.5 -14.5t-9.5 11t-15 20.5
t-10 13.5t-16 22t-21.5 30.5q-2 2 -5 6t-5 7t-3 4q-3 6 -6.5 10.5t-12.5 16.5q-1 2 -9 13t-11 16q-12 16 -22 30l-10 13l114 114l113 113l38 -38l38 -39l-76 -76l-77 -77l8 -11q10 -13 26 -36q8 -12 8.5 -12t3.5 7q6 16 15 32q26 42 68 68q31 19 67.5 22t69.5 -11
q27 -12 51 -37q26 -26 40 -59q12 -31 14 -61q2 -74 -66 -144q-20 -21 -41 -37q-66 -50 -135 -39z" />
    <glyph glyph-name="C" unicode="C" 
d="M531 31q-24 3 -49 14q-23 9 -26 12q-1 1 20 28q21 26 32 41q12 16 25 32l5 7l7 -4q15 -10 30 -15q8 -2 19 -2q23 -1 42 18q9 9 12 15q20 41 -17 80q-10 11 -23 18q-12 7 -26 8q-36 3 -63 -39q-7 -11 -8.5 -14t-2.5 -3t-6.5 7t-16.5 19q-19 22 -30 36l-10 11l4 3
q14 11 20 22q8 14 8 30q1 16 -5 27q-4 7 -10 14q-25 24 -53 10q-7 -4 -16 -12q-32 -33 -1 -80q5 -7 4 -8t-52.5 -36.5t-52.5 -36.5q-1 0 -5 8q-35 67 -10 130q16 41 61 86q46 46 87 62q21 9 46 9q18 0 26 -2q31 -8 53 -30q31 -30 31 -75q0 -19 -4 -37l-2 -9l10 5
q28 15 57 15q14 0 21 -1q34 -8 61.5 -37t38.5 -70q11 -38 1 -77q-16 -62 -90 -127q-46 -40 -93 -50q-9 -2 -27 -2h-22z" />
    <glyph glyph-name="D" unicode="D" 
d="M454 72q-41 7 -87 44q-10 7 -30 27t-28 30q-38 49 -43 97q-4 44 20 89q4 8 5 8q1 -1 52.5 -36.5t52.5 -36.5t-4 -8q-25 -37 -10 -65q3 -7 11.5 -15t15.5 -12q28 -14 53 10q6 7 10 14q6 11 5 27q0 16 -8 30q-6 11 -20 22l-4 3l10 11q11 14 30 36q11 12 16.5 19t6.5 7
t2.5 -3t8.5 -14q21 -32 48 -38q18 -4 38 5.5t35 29.5q25 35 8 70q-3 6 -12 15q-19 19 -42 18q-11 0 -19 -2q-15 -5 -30 -15l-7 -4l-5 7q-13 16 -25 32q-11 15 -32 41q-21 27 -20.5 27.5t8.5 4.5q27 14 55 20q10 2 30.5 2t30.5 -2q54 -12 113 -69q21 -20 37 -42
q38 -50 38 -103q0 -36 -17 -71q-22 -45 -63 -66q-22 -11 -47 -11q-29 0 -57 15l-10 5l2 -9q10 -42 -2 -74q-14 -38 -52 -58q-22 -11 -49 -12h-19z" />
    <glyph glyph-name="E" unicode="E" 
d="M429 32q-20 3 -39 11q-53 21 -107 83q-47 56 -53 111q-3 39 15 83q9 21 12 23q1 1 4 -2q7 -5 24 -18q8 -7 15 -11q8 -7 45 -35q14 -11 17 -13l3 -2l-6 -9q-16 -27 -16 -47q0 -13 6 -25q4 -8 13 -17q14 -14 30 -18q16 -3 31 2q20 6 36.5 23t21.5 36q2 6 2 15.5t-3 16.5
q-9 27 -47 48q-6 4 -5.5 5t49.5 43q12 11 17 15t5.5 4t2.5 -2q7 -11 19 -19q16 -11 35 -11q23 0 39 16q24 24 10 53q-3 6 -11 15q-16 16 -35 18t-46 -16l-7 -5l-16 22q-16 23 -22.5 33t-10.5 16q-20 28 -23 32l-2 3l11 6q22 11 43 16q12 2 30 2q36 0 67 -15q37 -18 78 -60
q59 -61 66 -112q2 -17 0 -32q-5 -37 -32 -64q-32 -33 -81 -31q-14 1 -38 6l-3 1l2 -3q7 -9 14 -27q5 -14 6 -33q1 -27 -11 -50q-14 -29 -44.5 -51t-67.5 -28q-21 -4 -43 -2z" />
    <glyph glyph-name="F" unicode="F" 
d="M405 75q-41 41 -41 44.5t4 51.5q4 47 9 109q15 168 15 172q1 5 2 25l2 20l39 39l40 40l87 -87l87 -87l32 32l32 32l41 -41l42 -42l-32 -32l-32 -32l22 -22l21 -21l-37 -37l-37 -37l-22 21l-21 22l-106 -106q-105 -106 -105.5 -105.5zM529 374q-46 45 -46.5 45t-2.5 -26
t-2 -33q-1 -5 -4 -40t-3 -42q-5 -57 -4.5 -57.5t54.5 53.5l54 54z" />
    <glyph glyph-name="G" unicode="G" 
d="M357 134l-114 114l10 13q10 14 22 30q3 5 11 16t9 13q9 12 12.5 16.5t6.5 10.5q3 4 13 17q9 13 21.5 30.5t16 22t10 13.5t15 20.5t9.5 11t20 -14.5t45 -34l27 -20v-11q0 -24 9 -43q7 -12 19.5 -23t25.5 -14q28 -7 57 13q7 5 20 18t17 19q25 37 9 70q-3 7 -12 16t-17 12
q-34 17 -72 -8q-6 -4 -7 -2.5t-15 19t-41 51.5t-28 35q0 1 17 9t30 11q46 14 93 -2q29 -9 61 -33.5t59 -56.5q40 -49 47 -100q3 -24 -2 -48q-7 -36 -26 -66q-25 -38 -61 -59q-35 -20 -76 -19t-76 22q-42 26 -68 68q-9 16 -15 32q-3 7 -3.5 7t-8.5 -12q-16 -23 -26 -36
l-8 -11l77 -77l76 -76l-38 -39l-38 -38z" />
    <glyph glyph-name="glyph35" unicode="H" 
d="M458 67q-56 9 -117 72q-57 59 -59 130q-3 80 74 166t146 109q32 11 62 11q26 0 48 -7q59 -19 114 -84q61 -73 39 -153q-11 -41 -43 -74q-39 -41 -89 -52q-10 -2 -31 -2q-28 0 -47 6q-36 12 -64 41q-37 39 -40 96l-2 10q-8 -7 -32 -41q-24 -33 -27 -56q-3 -20 7 -36
q13 -22 36 -24q16 -2 38 12l5 3l4 -5q5 -6 30 -39q12 -14 20.5 -25.5t18.5 -24l10 -12.5q-1 -4 -32 -14q-22 -8 -45 -8q-16 -1 -24 1zM585 297q15 4 30 15q17 13 29 29q16 21 17 42q2 18 -8 34t-27 24q-13 5 -28 5q-31 0 -60.5 -29t-29.5 -60q0 -25 18 -44q15 -14 33 -17
q13 -2 26 1z" />
    <glyph glyph-name="I" unicode="I" 
d="M434 27q-33 4 -72.5 29.5t-76.5 67.5q-36 41 -48 71q-20 49 -5 96q12 36 41 63q31 30 66 36h17q21 0 43 -7l12 -3v0q-12 43 -2 73q8 24 29 44q15 15 30 23q24 12 56 11q38 -2 72 -21q28 -15 59 -46q38 -39 57 -74q18 -34 18 -69.5t-18 -62.5q-24 -35 -60 -47
q-27 -8 -69 -2l-3 -1q4 -7 7 -29q6 -41 -13 -77t-58 -57q-39 -22 -82 -18zM424 150q20 5 36 21.5t20 35.5q2 6 2 16.5t-1 15.5q-8 29 -33 40q-25 12 -51 0q-17 -7 -31 -22.5t-18 -31.5q-5 -17 -1 -34t16.5 -28.5t29.5 -14.5q15 -3 31 2zM570 307q15 3 27.5 15t17.5 26
q4 14 1 28q-3 11 -12 22t-19 16q-13 6 -24 6t-24 -6q-11 -5 -20.5 -17t-11.5 -23q-4 -19 7 -38q3 -6 11.5 -13.5t13.5 -10.5q17 -8 33 -5zM630 139q-14 7 -14 23q0 8 1.5 8t1.5 1.5t12 14t18 14.5q9 3 16 0q3 -2 4 -1l3.5 -4t5.5 -7q5 -10 0 -21q-3 -5 -13 -15t-15 -12
q-10 -5 -20 -1z" />
    <glyph glyph-name="J" unicode="J" 
d="M346 145q-139 139 -139 140t39.5 40.5t40.5 39.5t86 -84l84 -85l1 5q0 3 2 16q14 118 52 198q24 52 59 104q19 28 32 45q5 6 5 6.5t24 -23t47.5 -47.5t23.5 -24.5t-10 -12.5l-15 -18q-4 -5 -10 -14q-28 -36 -48 -73q-56 -102 -67 -202q-4 -33 -4 -66l1 -19l-33 -32
l-32 -33z" />
    <glyph glyph-name="K" unicode="K" 
d="M463 70q-42 4 -90 41q-38 29 -66 66q-20 25 -29 51q-21 58 1 104q13 24 36 42q42 31 100 16q5 -1 5.5 -1t-3.5 9q-27 75 32 133q33 32 76 41q25 5 52 -1q19 -4 36 -12q50 -25 101 -83q47 -54 56 -101q5 -24 -1 -52q-13 -59 -62 -92q-18 -12 -41 -17q-33 -8 -70 4
q-6 2 -6 1.5t1 -7.5t1.5 -23.5t-0.5 -22.5q-9 -59 -63 -85q-29 -15 -66 -11zM448 184q12 3 23 12t17 21q8 16 4 34q-5 21 -26 35q-17 11 -36.5 8.5t-34 -18.5t-15.5 -34q-2 -24 16 -42q8 -8 13 -10q10 -6 17 -7q11 -2 22 1zM597 321q34 11 49 43q14 31 0 59q-7 15 -22 23
q-33 18 -67 -1q-21 -12 -33 -34q-20 -36 1 -68q12 -17 31 -23q9 -3 23 -2q11 0 18 3zM617 120q-8 2 -12 6q-2 3 -4.5 7.5t-2.5 11.5t1.5 7.5t1 1t13 14t18.5 15.5q8 2 15 -1q3 -1 4 -1t4.5 -4t4.5 -6q2 -5 2 -11q0 -11 -15 -26q-10 -10 -15 -12q-9 -4 -15 -2z" />
    <glyph glyph-name="L" unicode="L" 
d="M454 82q-16 1 -32 7q-29 9 -60 32q-36 28 -62 63q-50 66 -32 138q10 37 35.5 68t60.5 48q29 15 63 16q52 2 93 -27q22 -16 38 -38q24 -33 26 -86v-5l11 13q43 54 48 79q7 31 -12 52q-26 29 -66 4l-7 -4q-3 5 -26 34l-20 25q-11 15 -23 31q-13 16 -13 17q0 2 25 11
q62 24 119 -5q42 -20 83 -68q31 -37 43 -78q6 -21 6 -48q0 -21 -2 -32q-15 -68 -82 -139q-66 -71 -126 -94q-20 -8 -37 -11q-28 -6 -51 -3zM448 191q15 2 31 13q25 16 39 41q18 32 2 63q-13 24 -38 31q-18 5 -36 -1q-21 -7 -43 -29q-20 -20 -27 -41q-3 -6 -3 -17.5t2 -17.5
q5 -13 16 -24q8 -8 16 -12q19 -10 41 -6zM732 497.5q-6 4.5 -6 3.5l-2 2l-5 5l-7 7q-15 15 -14.5 15.5t-6.5 7.5q-16 15 -19 22q-1 3 -0.5 6t3 2.5t5 -2t3.5 -1.5t21.5 -20.5t20.5 -22t6 -7.5q7 -8 10 -15t0 -7t-9 4.5z" />
    <glyph glyph-name="M" unicode="M" 
d="M604 34q-58 77 -92 151q-38 80 -52 198q-2 13 -2 16l-1 5l-84 -85q-85 -84 -86 -84t-40.5 39.5t-39.5 40.5t139 140l139 139l32 -33l33 -32l-1 -21q-1 -96 36 -192q14 -37 35 -74q20 -37 48 -73q15 -20 25 -32q9 -10 9.5 -11.5t-46.5 -48.5t-47.5 -47t-4.5 4z" />
    <glyph glyph-name="N" unicode="N" 
d="M676 47q1 3 2.5 5.5t1.5 3.5t27 27.5t28 26.5t5 4q10 8 12.5 5.5t-5.5 -12.5q-4 -4 -4 -5t-17 -18t-18 -17t-10.5 -9.5t-10 -9t-3.5 -1.5t-6 -3q-2 0 -2 0.5v2.5zM551 45q-3 1 -11 2q-53 7 -107 46q-49 36 -90 87q-38 47 -54 94q-5 17 -7 36q-6 83 59 151
q33 35 60.5 51.5t57.5 20.5q32 5 68 -7q31 -10 32 -14l-10 -12.5t-18.5 -24t-20.5 -25.5q-25 -33 -30 -39l-4 -5l-5 3q-22 14 -38 12q-23 -2 -36 -24q-17 -27 1 -62q6 -13 19 -30q24 -34 32 -41l2 10q3 57 40 96q28 29 64 41q19 6 47 6q21 0 31 -2q50 -11 89 -52
q32 -33 43 -74q15 -56 -11 -109q-13 -29 -42 -59t-60 -50q-29 -18 -59 -24q-25 -4 -42 -2zM615 155q28 7 41 34q20 41 -26 85q-16 16 -30 23q-16 8 -31 8q-25 0 -42 -18q-19 -19 -19 -44q0 -31 29 -60q25 -25 51 -29q13 -2 27 1z" />
    <glyph glyph-name="O" unicode="O" 
d="M424 46q-81 8 -149 88q-34 39 -43 79q-3 11 -3 28.5t2 28.5q5 22 15 42l4 11l3 -3q3 -2 14 -10q10 -8 16.5 -13t24.5 -18q46 -37 48 -38q1 -1 -1 -4q-13 -23 -13 -37q0 -17 14 -32q16 -15 37 -15q27 0 67 29q39 28 40 32l-1 0.5t-3 0.5h-5q-39 0 -70 18.5t-52 50.5
q-39 59 -16 131q18 55 72 91q27 18 61 26q9 2 29 2q27 0 50 -8q40 -14 83 -56q37 -38 54 -71q16 -34 16 -70q0 -61 -41 -122q-17 -26 -48 -58t-60 -53q-55 -41 -106 -49q-20 -3 -39 -1zM534 273q24 5 47 28q28 29 28 61q0 27 -18 45q-15 15 -34 18q-33 4 -67 -30
q-29 -30 -31 -60t21.5 -49.5t53.5 -12.5zM302 56q-2 1 -2 0.5t-2.5 1.5t-5 3t-8.5 6.5t-7 5t-21.5 20t-20.5 22t-1.5 4t-2.5 5.5q-1 2 -0.5 2.5t3.5 0.5q4 0 6 -1q8 -5 21 -18q7 -8 8 -8q2 0 8.5 -6.5t5.5 -7.5q1 0 8 -6.5t7 -7.5t4 -5q10 -12 4 -12q-2 0 -4 1z" />
    <glyph glyph-name="P" unicode="P" 
d="M473 12q-61 5 -100 31q-21 14 -36 36q-38 57 -43 168q-4 73 10 137q13 57 40 90q22 28 55 43q38 19 97 19q34 0 60 -5q71 -14 107 -62q44 -60 44 -192q0 -101 -26 -162q-20 -47 -61 -74q-32 -21 -79 -27q-34 -5 -68 -2zM518 110q19 7 29 26l3 5l-54 123q-11 26 -19 44
t-14.5 32.5t-10 22.5t-6 13t-3.5 6.5l-1 1.5q-3 -11 -6 -35q-6 -62 -2 -132q4 -59 21 -85q13 -18 33 -24q16 -4 30 2zM562 183q4 27 5 80q2 116 -19 152q-16 27 -47 27q-28 0 -44 -23l-4 -6l53 -121l54 -120q0 2 2 11z" />
    <glyph glyph-name="Q" unicode="Q" 
d="M337 83l-48 48l115 115l57.5 57.5l41.5 41.5l15 15q-13 0 -49 10q-28 7 -54 18q-47 20 -47 23q0 1 39 39l39 39l9 -4q54 -27 100 -33q25 -4 51 -1q20 3 40 9l10 3l40 -40l39 -39l-175 -175l-174 -175z" />
    <glyph glyph-name="R" unicode="R" 
d="M375 45l-42 42l32 32l32 32l-87 87l-86 87l39 39l39 39l49 5q79 7 207 18q58 5 92 8l33 2l41 -41l42 -42l-106 -106l-105 -105l21 -22l22 -22l-37 -37l-37 -37l-22 22l-21 22l-32 -33l-32 -32zM526 279q14 15 26.5 27.5l19.5 19.5l7 7q-24 0 -145 -11q-4 -1 -10 -1
l-43 -4q-1 0 21.5 -23t45.5 -46t23.5 -23t54.5 54z" />
    <glyph glyph-name="S" unicode="S" 
d="M470 64q-39 3 -80 33q-21 14 -51 45q-43 42 -60 76q-15 31 -15 64q0 30 16 62q6 13 16.5 29.5t12.5 16.5q1 0 4.5 -4t15.5 -13q12 -11 22 -19.5t22 -18.5t22 -19t14 -11l3 -2l-6 -9q-12 -17 -16 -31q-2 -7 -2 -17q0 -19 13 -35q15 -21 39.5 -24t41.5 14q15 13 20 39
q6 26 -3 91q-3 19 -5 34q-14 106 -2 164q8 37 25 70q11 22 22 36l3 2l143 -143l143 -143l-38 -39q-39 -39 -40 -39t-75 75l-74 74v-4q0 -26 3 -49q2 -13 10 -59q13 -76 5 -122q-7 -37 -26 -65q-6 -7 -17.5 -19t-18.5 -17q-39 -26 -87 -23z" />
    <glyph glyph-name="T" unicode="T" 
d="M429 36q-74 8 -143 87q-33 38 -46 72q-12 29 -11 65q1 24 8 46q3 8 10 23l7 15q1 0 54 -43l54 -43l-4 -5q-15 -23 -15 -45q0 -15 6 -28q4 -7 12.5 -16t15.5 -12q16 -8 34 -6q26 2 55 30q32 32 33 60q2 32 -26 55q-23 18 -56 18h-11l-2 3q-2 3 -34 45.5t-32.5 43.5t8.5 7
t26 19q4 3 9.5 7t11.5 8t8 6q12 8 17 12q7 5 57 41q18 13 22.5 16t11 8t11 8t18 12.5t14 9.5t113.5 -113l113 -112l-38 -39l-38 -38l-77 77l-77 77l-3 -3q-10 -7 -31 -22q-18 -14 -21.5 -16t-2.5 -2.5t8 -3.5q33 -12 58 -35q47 -41 60 -95q2 -11 2 -31.5t-2 -30.5
q-6 -27 -22 -52q-19 -28 -48 -48q-57 -38 -117 -32z" />
    <glyph glyph-name="U" unicode="U" 
d="M276 144l-47 47l12 9q105 78 193 107q48 16 101 26q34 6 60 8q6 1 7 1q0 1 -11 12.5t-30.5 31l-42.5 42.5l-85 84l41 41l41 40l139 -139l139 -139l-32 -33l-32 -32h-29q-29 0 -30 -0.5t-11 -1.5q-23 -1 -52 -7q-111 -22 -210 -88q-44 -30 -69 -53l-4 -4z" />
    <glyph glyph-name="V" unicode="V" 
d="M435 64l-39 39l-2 20q-1 20 -1.5 24.5t-5.5 58.5q-13 152 -19 218q-4 54 -4 57t41 44l42 42l105 -106l106 -106l21 22l22 21l37 -37l37 -37l-21 -21l-22 -22l32 -32l32 -32l-42 -42l-41 -41l-32 32l-32 32l-87 -87l-87 -87zM521 326q-54 54 -54.5 53.5t4.5 -57.5
q0 -7 3 -41.5t3.5 -39.5t2.5 -29.5t2 -28.5l1 -3l46 46l46 46z" />
    <glyph glyph-name="W" unicode="W" 
d="M305 115l-143 143l5 3q41 32 93 44q32 8 74 8q48 0 125 -11q67 -10 92 -6q49 6 60 41q4 14 0 28q-4 16 -16.5 29t-28.5 17t-32 -2q-13 -5 -29 -16l-8 -5l-3 3q-2 4 -10 13t-17 20q-9 10 -19 21q-39 46 -38.5 46.5t15.5 10.5q37 25 69 32q8 1 25 1t28 -2q50 -12 106 -67
q42 -41 61.5 -74t20.5 -68q2 -38 -17 -71.5t-55 -53.5q-38 -22 -93 -21q-36 0 -97 10q-51 9 -77 10l-18 1l75 -75l74 -75l-39 -39q-39 -38 -39.5 -38t-143.5 143z" />
    <glyph glyph-name="H" unicode="X" 
d="M538 -32q-34 44 -46 102.5t2 164.5q2 15 5 34q9 65 3 91q-5 26 -20 39q-19 19 -46 13q-15 -3 -28 -15t-19 -28q-5 -15 1 -32q4 -14 16 -31l6 -9l-3 -2q-4 -2 -14 -11t-22 -19t-22 -18.5t-22 -19.5q-12 -9 -15.5 -13t-4.5 -4q-2 0 -12.5 16.5t-16.5 29.5q-16 32 -16 62
q0 33 15 64q17 34 60 76q35 36 62 53t57 23q22 4 46 0q29 -5 53 -21q7 -5 18.5 -17t17.5 -19q19 -28 26 -65q8 -46 -5 -122q-8 -46 -10 -59q-3 -23 -3 -49v-4l74 74q74 75 75 75t40 -39l38 -39l-143 -143q-143 -143 -143.5 -143t-3.5 5z" />
    <glyph glyph-name="Y" unicode="Y" 
d="M431 29q-14 2 -31 7q-54 18 -107 81q-39 47 -47 92q-5 30 2 60q14 67 74 132q66 73 129 101q93 40 178 -18q17 -11 40 -34q26 -26 40 -48q33 -50 23 -107q-4 -22 -17 -48l-3 -6l-17 13q-17 13 -28 21.5t-17 13t-15 11.5l-29 23q-1 1 4 8q18 30 5 53q-5 9 -15 16
q-12 9 -28 10q-27 1 -64 -25q-43 -30 -45 -35q0 -1 7 -2q17 0 32 -3q39 -8 70 -39q34 -34 43 -80q5 -27 0 -54q-9 -51 -49 -91q-14 -14 -22 -20q-47 -33 -98 -32h-15zM427 139q21 5 46 30q19 19 26 36q6 14 5 30q-1 22 -18 39q-19 18 -44 18q-31 0 -60 -30q-22 -22 -27 -46
q-4 -19 1 -35q11 -33 42 -41q5 -1 14 -1.5t15 0.5zM314 48q-1 1 -2 1t-5 3.5t-5 3.5t-18.5 17.5t-17.5 18.5t-9 10t-9 10t-2 4.5t-2 5.5t2.5 1.5t5.5 -2.5l3 -2q1 1 14.5 -12.5t27 -27.5t13.5 -15t3.5 -5t3.5 -4.5t1 -2.5q3 -4 1.5 -5t-5.5 1z" />
    <glyph glyph-name="Z" unicode="Z" 
d="M554 204q-114 114 -114.5 114t-2.5 -13q-9 -58 -38 -117q-9 -18 -10 -18.5t-40 38.5l-39 38l7 14q17 36 26 68q6 25 6 54q0 34 -9 64l-4 11l40 39l40 40l174 -175l175 -175l-48 -48l-48 -48z" />
    <glyph glyph-name="backslash" unicode="\" 
d="M547 41q-22 2 -40 9q-35 13 -77 45t-80 75q-39 44 -57 80q-22 43 -19 84q4 58 54 114q29 31 56 49.5t59 24.5q8 2 27 2t27 -1q40 -7 89 -41q42 -28 83.5 -71.5t63.5 -82.5q19 -32 26 -63q2 -11 2 -28.5t-1 -25.5q-7 -29 -23 -56q-19 -29 -46.5 -55.5t-53.5 -40.5
q-42 -23 -90 -18zM606 156q13 2 24 13q19 20 13 48q-5 26 -36 63q-14 17 -42.5 45.5t-45.5 43.5q-26 21 -37 27q-1 1 -1 0t3 -10l2 -4q5 -12 6 -15l1 -3t2 -5t2 -4.5t1 -3.5q0 -2 5 -14q10 -24 11 -27q0 -2 1 -4q3 -5 4 -8q0 -1 2 -6l3 -7.5t2 -5.5q8 -18 9 -21q0 -1 1 -3
q2 -6 9 -22q0 -2 1.5 -5t1.5 -4t3.5 -9t3.5 -9.5t1 -1.5t1.5 -3t1.5 -5q4 -8 5 -12q0 -1 3 -9q1 -2 1 -2.5t3 -7.5q2 -6 4 -7t9 -2q12 -3 22 0zM546 174q0 2 -1 3t-1 3t-5 14t-5.5 14t-2 5l-1.5 3q-1 5 -6 14q-1 3 -0.5 3t-1 2.5t-5 11.5t-4.5 12t-1 4q0 5 -8 20
q-2 2 -1.5 2t-0.5 2.5l-1 2.5q0 2 -6 15q-1 3 -2 5t-4.5 11t-5 14t-2.5 6l-1 2v1t-1 3l-2 4t-1.5 4t-1 3.5l-0.5 1.5l-1 2t-2 5t-2 3q1 1 -6 15q-1 3 -1 4.5t-0.5 2.5t-3.5 8t-4 8t-9 2q-31 4 -49 -22q-10 -13 -9 -31q2 -30 51 -85q42 -48 83 -81q23 -19 26 -19z" />
    <glyph glyph-name="asciicircum" unicode="^" 
d="M506 83q-88 10 -184 116q-60 65 -74 132q-7 30 -2 60q6 31 24 61q25 39 64 72q53 45 107 47t103 -32q8 -6 22 -20q40 -40 49 -91q5 -27 0 -54q-9 -46 -43 -80q-41 -41 -102 -42q-7 -1 -7 -2q2 -5 45 -35q37 -26 64 -25q16 1 28 10q10 7 15 16q13 23 -5 53q-5 7 -4 8
l29 23q9 7 15 11.5t17 13t28 21.5l17 13l3 -6q13 -26 17 -48q8 -47 -12 -88q-14 -30 -51 -67q-35 -35 -69 -51q-46 -21 -94 -16zM456.5 309.5q15.5 3.5 29.5 16.5q17 17 18 39q1 16 -5 30q-7 17 -26 36q-25 25 -46 30q-15 3 -28 -1q-32 -8 -43 -41q-5 -16 -1 -35
q5 -25 29 -48q21 -21 42 -26q15 -4 30.5 -0.5zM244 478q0 2 2 5.5t2 4.5t9 10t9 10t17.5 18.5t18.5 17.5t5 3.5t4.5 3t2.5 1.5t4 2q4 0 0 -6q-2 -2 -1.5 -2.5t-3 -4.5t-3.5 -5t-13.5 -15t-27 -27.5t-14.5 -12.5l-3 -2t-5.5 -2.5t-2.5 1.5z" />
    <glyph glyph-name="a" unicode="a" 
d="M221 323v71h168q169 0 169 0.5t-6 7.5q-30 41 -49 88q-18 44 -18 51h58h57l2 -7q10 -28 25 -58q35 -71 100 -104l8 -4v-58v-59h-257h-257v72z" />
    <glyph glyph-name="b" unicode="b" 
d="M371 154q-45 15 -72 42q-44 42 -54 117q-2 13 -2.5 42.5t1.5 43.5q8 72 48 115q42 45 110 55q33 6 66 -2q66 -14 100 -73q23 -39 23 -92q0 -42 -17 -83q-4 -10 -3 -10q2 0 37.5 6t36.5 6q1 1 1 114v112h56h55v-167v-167l-135 -22l-136 -22l-9 60l-9 59l10 10q13 14 19 26
q17 36 0 69q-9 18 -27 27q-21 10 -53 10t-53 -11q-9 -4 -17 -12q-19 -19 -19 -44q0 -16 7 -30q4 -9 12 -17q15 -15 41 -21q9 -3 9.5 -3.5t-7 -70.5t-9 -70t-10.5 3z" />
    <glyph glyph-name="c" unicode="c" 
d="M375 153q-35 12 -59 28q-57 37 -71 108q-6 29 -6 74q0 35 1 46q9 70 48 112q36 37 92 47q25 4 49 1q58 -8 84 -59q3 -5 7.5 -18.5t4.5 -15.5q0 -6 7 5q17 29 40 45q33 22 73.5 17.5t69.5 -33.5q39 -38 46 -119q3 -45 -2 -81q-9 -65 -45 -103q-18 -20 -47 -34
q-8 -4 -21.5 -9t-14.5 -4l-12 64.5t-12 66.5q0 1 6 2q32 7 46 20q15 16 15 41q0 32 -23 45q-11 7 -26 7t-27 -7q-15 -7 -24 -22q-11 -19 -9 -44l1 -10l-49 -3.5t-51 -3.5l2 7q9 36 4 57q-9 35 -44 45q-34 9 -63 -2q-15 -6 -26 -19t-14 -27q-5 -26 6 -47q14 -24 55 -35
q12 -3 12.5 -3.5t-9 -69.5t-10 -69.5t-4.5 0.5z" />
    <glyph glyph-name="d" unicode="d" 
d="M394 157q-39 3 -72.5 23t-53.5 51q-21 34 -28 87q-2 12 -1.5 46.5t1.5 47.5q6 41 20 70q24 49 77 75q8 5 18.5 9t17.5 6t7 1q1 -2 9.5 -70t8.5 -68.5t-12 -3.5q-31 -8 -45 -22q-17 -17 -17 -44q0 -16 6 -29q10 -20 31.5 -30.5t49.5 -7.5q29 3 45 20q27 27 12 85
q-2 8 -1 8t50 -4l49 -4l-1 -9q-2 -26 9 -45q9 -14 24 -22q12 -6 27 -6t26 6q23 14 23 45q0 26 -15 41q-14 14 -46 20q-6 1 -6 2q0 2 12 66.5l12 64.5q1 1 14.5 -4t22.5 -9q49 -24 72 -70q20 -41 21 -105q2 -82 -21 -128q-13 -27 -36.5 -44.5t-52.5 -22.5q-44 -6 -79 18
q-23 16 -40 44q-7 11 -7 6q0 -3 -4.5 -16t-7.5 -18q-21 -43 -67 -56q-24 -7 -52 -4z" />
    <glyph glyph-name="e" unicode="e" 
d="M465 12q-81 6 -126 51q-11 11 -16 19q-22 31 -30 70q-2 10 -2 29.5t2 29.5q11 47 50 72q13 8 35 14l11 3l-9 5q-38 24 -54 56q-11 24 -9 53t16 53q34 56 126 67q15 2 44.5 2t42.5 -2q43 -6 70 -19q58 -28 81 -96q5 -15 4 -15t-64 -11t-66 -12q-2 0 -2.5 1t-1.5 6
q-3 20 -11 34q-7 13 -21 20q-17 8 -36.5 5.5t-30.5 -14.5q-13 -14 -13 -36q1 -23 19 -41q23 -22 59 -17l5 1l3.5 -50l3.5 -50l-8 2q-21 5 -38 5q-14 0 -22 -3q-33 -10 -42 -45q-5 -19 -2 -40q4 -27 20.5 -43.5t41.5 -18.5q42 -2 60 33q7 15 11 32l3 10l69.5 -9t70.5 -10
t-5 -17t-12 -27q-36 -71 -113 -89q-50 -13 -114 -8z" />
    <glyph glyph-name="f" unicode="f" 
d="M337 174v31h-47h-47v62v61l47 1h47v128v128h58h57l153 -128l152 -128v-62v-62h-155h-156v-31v-32h-54h-55v32zM603 330q-3 3 -79.5 68t-77 65t-0.5 -33v-66.5v-34.5h80l78 1h-1z" />
    <glyph glyph-name="g" unicode="g" 
d="M418 155q-78 7 -126 57q-40 43 -48 116q-2 14 -1.5 43t2.5 42q10 75 54 118q24 23 60 37q22 9 24 8q0 -1 7.5 -71t7 -70.5t-9.5 -2.5q-26 -7 -41 -22q-8 -7 -12 -16q-7 -14 -7 -30q0 -26 19 -44q8 -9 17 -13q21 -10 53 -10.5t53 10.5q18 8 27 26q17 33 0 69q-6 13 -19 27
l-10 9l9 60q9 59 9 59.5t136 -21.5l135 -22v-168v-167h-55h-56v113q0 113 -1 113q-1 1 -36.5 6.5t-37.5 5.5q-1 0 3 -10q17 -41 17 -83q0 -53 -23 -92q-38 -65 -113 -75q-20 -3 -37 -2z" />
    <glyph glyph-name="h" unicode="h" 
d="M404 154q-76 11 -116 70q-21 32 -29 79q-2 12 -2 39t1 42q6 58 31 95q16 25 42 43q63 45 172 47q162 4 229 -72q29 -34 41 -80q6 -26 7 -60q1 -55 -9.5 -90t-37.5 -61q-19 -19 -44 -31q-29 -14 -31 -11q-1 0 -9 67.5t-8 69.5t1 2q8 0 26 8q25 13 26 42q0 29 -23 46
q-17 12 -47 19q-13 3 -41 6.5t-29 2.5t5 -7q33 -34 41 -75q2 -10 2 -31.5t-2 -30.5q-7 -35 -25 -60q-43 -59 -115 -69q-10 -1 -28.5 -1t-27.5 1zM447 287q18 2 33 9q9 4 18 13q18 19 18 44q0 16 -7 30q-9 19 -28 29q-21 11 -51.5 10.5t-50.5 -12.5q-19 -11 -27 -29
q-8 -15 -8 -31q1 -26 20 -44q21 -20 63 -20q11 0 20 1zM223 313q-4 10 -3 54q1 43 4 51q3 6 5 0q4 -9 3 -53t-4 -52q-2 -6 -5 0z" />
    <glyph glyph-name="i" unicode="i" 
d="M480 12q-77 6 -117 36q-35 26 -50 72q-11 34 -6.5 68t24.5 60q12 16 28 28t26 16q2 1 0 2q-12 7 -26 21q-27 25 -35 63q-5 20 -1 43q7 38 37 67q47 45 148 48q109 3 163 -54q27 -28 32 -65q3 -24 -2 -46q-9 -33 -32 -55q-13 -12 -31 -22l-3 -1l9 -5q51 -22 67 -68
q8 -22 8 -51q0 -22 -2 -33q-15 -67 -71 -99q-30 -17 -79 -23q-43 -5 -87 -2zM531 101q27 9 40 35q10 21 8 48q-2 17 -9 30q-12 25 -39 34q-6 2 -17 2q-17 0 -31 -8q-16 -9 -25 -25q-19 -32 -7 -71q5 -16 18.5 -29t29.5 -17t32 1zM527 335q21 5 33.5 21.5t10.5 40.5
q-1 20 -13 34t-30 18q-17 3 -34 -2q-22 -7 -32 -28q-6 -12 -6 -28q0 -21 11 -35q20 -29 60 -21zM297 278q-10 3 -14 15q-2 5 -2 21q1 22 8 29q9 10 23 7t18 -16q1 -5 1 -20.5t-1 -21.5q-3 -9 -13 -13.5t-20 -0.5z" />
    <glyph glyph-name="j" unicode="j" 
d="M647 169q-70 74 -170 118q-99 44 -222 55h-8v70v71l2 -1q36 -5 54 -8q136 -26 238 -89q42 -27 82 -59q10 -7 11 -7t1 124v125h59h59v-206v-205h-47h-47z" />
    <glyph glyph-name="k" unicode="k" 
d="M524 133q-11 2 -16 8q-6 8 -5.5 18t7.5 16q6 7 29 7t30 -7q9 -9 6.5 -22.5t-14.5 -17.5q-4 -1 -18 -2t-19 0zM374 158q-30 4 -58.5 21t-44.5 40q-22 34 -31 94q-1 14 -1 51t1 52q9 74 47 112q32 31 79 40q29 5 56 0q63 -11 91 -70l6 -11l5 8q33 54 91 59q64 6 106 -45
q29 -37 38 -94q5 -32 2 -77q-7 -84 -46 -126q-26 -27 -60 -36q-9 -2 -24 -2q-32 -2 -59 13q-24 12 -46 40q-7 10 -7 10.5t-4 -6.5q-16 -32 -44 -51q-25 -17 -55 -22q-21 -3 -42 0zM421 300q19 4 34 17q21 20 22 47q0 14 -6 27q-13 28 -46 36q-19 5 -38 2q-30 -4 -48 -27
q-14 -17 -14 -39q0 -23 19 -43q14 -13 32 -19q21 -6 45 -1zM631 309q35 7 43 40q4 16 0 32q-8 32 -40 40q-5 1 -15 1t-16 -1q-33 -8 -41 -41q-5 -19 0 -33q6 -22 25.5 -32.5t43.5 -5.5z" />
    <glyph glyph-name="l" unicode="l" 
d="M444 158q-4 1 -17 2q-74 6 -122 34q-47 27 -71 76q-14 29 -20 68q-2 9 -2 40t2 41q6 48 26 79q23 34 64 54q28 14 30 11l9 -67.5t9 -69.5q0 -1 -9 -4q-21 -5 -31 -16q-14 -14 -13.5 -34.5t15.5 -36.5q18 -20 71 -29q36 -6 50 -6h4l-8 9q-35 37 -40 82q-4 30 2 56
q11 51 50 86q47 42 117 42q58 0 102.5 -30.5t61.5 -82.5q6 -19 10 -43q1 -11 1 -42t-2 -43q-7 -48 -27 -80.5t-57 -56.5q-46 -29 -119 -37q-10 -1 -43.5 -2t-42.5 0zM590 308q25 7 40 23q21 23 17 53q-2 20 -17 35q-8 8 -17 12q-17 9 -44 10q-50 1 -74 -23q-19 -18 -19 -44
q0 -24 14 -41t37 -24q15 -4 36 -3q18 0 27 2zM176 330q-7 15 -7 63q1 34 4 40q1 1 4 0q6 -4 7 -53q1 -30 0 -39q-2 -15 -5 -15q-1 0 -3 4z" />
    <glyph glyph-name="m" unicode="m" 
d="M635 283q0 125 -1 125t-11 -8q-40 -32 -82 -59q-102 -63 -238 -88l-54 -9h-2v70v70l8 1q123 10 222 54q100 44 170 119l12 12h47h47v-206v-205h-59h-59v124z" />
    <glyph glyph-name="n" unicode="n" 
d="M480 158q-72 4 -120 29q-32 16 -55 40q-39 41 -47 115q-1 16 -1 42.5t2 38.5q13 83 74 123q32 21 71 26q10 2 28 2t28 -2q72 -9 115 -68q18 -25 25 -60q2 -9 2 -31t-2 -31q-8 -42 -41 -76q-6 -6 -5 -6q1 -1 29 2.5t41 6.5q30 6 47 18q23 18 23 46q-1 30 -26 42
q-18 8 -26 8q-1 0 -1 2t8 69.5t9 68.5q2 2 31 -12q25 -12 44 -31q40 -40 46 -112q4 -42 -1 -75q-22 -142 -176 -169q-57 -10 -122 -6zM449 305q29 4 48 22q19 19 19 46q0 25 -18 44q-9 9 -19 13q-21 11 -51 11q-42 0 -64 -21q-19 -18 -20 -44q0 -16 8 -31q12 -26 43 -35
q25 -8 54 -5zM224 308q-3 8 -4 52t3 53q3 6 5 0q3 -7 4 -51q1 -45 -3 -54q-2 -5 -5 0z" />
    <glyph glyph-name="o" unicode="o" 
d="M496.5 -31q-5.5 1 -15.5 2q-16 2 -21 6q-1 2 1 3.5t7 2.5q8 2 45 1.5t46 -3.5q5 -1 7 -4l2 -3l-2 -1q-4 -4 -38 -4q-26 -1 -31.5 0zM483 12q-114 11 -161 103q-28 55 -31 147q-1 49 6 95q10 55 36.5 96t66.5 61q30 14 72 20q14 2 41 2t40 -2q49 -7 81 -28q38 -24 58 -68
t16 -93q-5 -67 -49 -110q-49 -49 -119 -46q-57 3 -100 44q-6 6 -6 5.5t1 -15.5q5 -50 13 -74q13 -41 46 -49q18 -4 33 2.5t22 21.5q9 17 9 26q0 2 3 2q3 -1 69.5 -9.5t67 -8.5t-1 -5.5t-5 -13t-5.5 -12.5q-25 -51 -72 -73q-25 -12 -60 -16q-11 -2 -36 -2.5t-35 0.5zM528 279
q29 10 41 42q6 20 6 45t-8 43q-12 31 -44 38q-7 1 -17 1q-25 -2 -43 -20q-16 -17 -22 -42q-5 -25 0 -50q9 -50 54 -59q4 -1 15 -0.5t18 2.5z" />
    <glyph glyph-name="p" unicode="p" 
d="M503 75q-69 11 -157 97q-89 88 -103 158q-3 19 -3 39q1 23 8 44q17 52 78 103q71 59 140 43q62 -14 137 -82q41 -38 72 -80.5t42 -77.5q12 -39 5 -76q-12 -54 -67 -107q-51 -49 -105 -60q-24 -4 -47 -1zM575 190q12 4 20 13q9 9 13 20q2 5 2 16q0 16 -6 18q-3 0 -5 1
q-18 8 -20 8q-1 1 -3 1.5t-10 4t-12 5t-5 1.5t-2.5 1t-10.5 4.5t-10.5 4l-3 1t-12 4.5t-23 9t-15 6.5t-2.5 1t-3 0.5q-9 5 -14 6q-1 0 -3.5 1.5t-4.5 1.5q-2 1 -12 5q-15 5 -18 7q-3 1 -8.5 3t-8 3.5t-2.5 1t-3 0.5q-7 4 -9 4l-5 2q-6 3 -6.5 2t5.5 -10q20 -27 55 -62
q49 -50 82 -71q35 -23 60 -14zM596 281q-21 37 -86 99q-53 50 -84 61q-21 8 -40 1t-28 -26q-3 -7 -4 -17q0 -20 5 -25q1 -1 4 -1.5t3 -1.5t2 -1q3 0 21 -8q16 -7 20 -8l8 -3q2 -1 3 -1q2 -1 26 -10q13 -6 15 -6q2 -1 9 -4q2 -2 2 -1.5t7.5 -2.5t10.5 -3.5t3 -1.5t1 -1
q3 0 22 -8q3 -1 5 -2t5 -2t3.5 -1t3 -1.5l2.5 -1.5q1 1 8 -3q2 -1 3 -1q3 -1 28 -11q2 0 11 -3.5t10 -4.5h1z" />
    <glyph glyph-name="q" unicode="q" 
d="M355 278v258h58h58l5 -10q24 -45 64 -75q35 -27 95 -47l10 -4v-58v-57q-7 0 -53 18q-40 17 -78 43q-13 9 -16 11l-1 -26v-142v-169h-71h-71v258z" />
    <glyph glyph-name="r" unicode="r" 
d="M342 67v48h-32h-31v55v54h31h32v156v156h61h62l128 -153l128 -152v-58v-58h-128h-129v-48v-47h-61h-61v47zM599 226q-2 3 -68 80.5t-66.5 77.5t-0.5 -80v-80h68h69z" />
    <glyph glyph-name="s" unicode="s" 
d="M243 370q0 210 2 210q11 0 38 -7q47 -14 86 -43q26 -19 54 -49.5t76 -93.5t79 -78q21 -10 41 -5t32 23q12 19 10 43q-5 43 -54 55q-12 3 -17 3.5t-5 3.5t5.5 69.5t6 67.5t11.5 0q50 -9 80.5 -29t47.5 -55q16 -32 20 -82q1 -11 1 -37.5t-1 -38.5q-6 -82 -45 -122
q-37 -38 -89 -42q-30 -3 -61 7q-57 19 -116 96q-8 10 -24 34q-26 36 -37 49q-24 28 -26 28q-1 0 -1 -109v-109h-57h-57v211z" />
    <glyph glyph-name="t" unicode="t" 
d="M469 12q-96 8 -144 74q-16 22 -25 51q-14 42 -9.5 83t27.5 73q16 22 37 37q28 20 64 27q63 12 124 -14q9 -4 9 -3.5t-6 37.5l-6 38h-113h-113v56v56h167q167 0 167 -0.5t22 -134.5t22 -135.5t-59 -10.5l-60 -8l-10 9q-17 17 -36 23q-23 8 -45 2q-29 -8 -41 -33
q-10 -21 -10 -52q0 -32 11 -54q4 -9 13 -17q19 -20 47 -19q25 2 42.5 18.5t22.5 44.5q1 7 1.5 7.5t71 -7.5t71.5 -8q1 -2 -6.5 -20.5t-12.5 -27.5q-19 -34 -51 -57q-42 -30 -114 -35q-30 -2 -58 0z" />
    <glyph glyph-name="u" unicode="u" 
d="M480 22q-1 2 -1 10q-5 60 -19 116q-31 121 -97 209q-21 28 -49 56l-20 20v47v47h206h206v-59v-60h-125h-126l7 -9q68 -86 102 -163q35 -79 53 -194q3 -19 3 -20.5t-70 -1.5h-70v2z" />
    <glyph glyph-name="v" unicode="v" 
d="M337 269v128l-47 1h-47v61v62h47h47v32v31h55h54v-31v-32h156h155v-62v-62l-152 -128l-153 -128h-57h-58v128zM527 330l78 67l-78 1q-79 0 -80 -1q-1 0 -1 -33.5v-67t1 -33.5q1 1 80 67z" />
    <glyph glyph-name="w" unicode="w" 
d="M288 78v57h111h110l-7 7q-26 24 -72 57q-52 37 -80 64q-28 28 -42 57q-14 30 -15 63q-3 61 40 104q23 23 53.5 34t78.5 14q94 6 146 -18q63 -30 83 -105q9 -35 6 -37q0 -1 -69.5 -6.5t-70 -5t-2.5 10.5q-5 28 -17 43q-15 21 -44 22.5t-48 -17.5q-16 -16 -16 -39
q0 -19 13 -39q16 -26 86 -78q105 -79 141 -137q28 -46 38 -105l1 -4h-212h-212v58z" />
    <glyph glyph-name="x" unicode="x" 
d="M243 357v211h57h57v-110q0 -109 1 -109q2 0 26 28q11 13 37 50q46 65 79 94q56 48 122 43q52 -4 89 -42q39 -41 45 -122q1 -12 1 -38.5t-1 -37.5q-4 -51 -20 -82q-17 -36 -47.5 -55.5t-80.5 -28.5q-11 -2 -11.5 -1t-6 67.5t-5.5 69.5t5 3.5t17 3.5q49 12 54 55
q2 22 -8 40t-29 25q-28 10 -62 -13q-22 -15 -63 -69q-42 -55 -65.5 -82t-50.5 -50q-43 -37 -100 -53q-27 -8 -38 -8q-2 0 -2 211z" />
    <glyph glyph-name="y" unicode="y" 
d="M462 -25q-13 2 -13 5.5t15 5.5q9 1 41.5 1.5t39.5 -0.5q16 -2 16 -5.5t-15 -5.5q-7 -1 -42.5 -1.5t-41.5 0.5zM459 12q-107 9 -149 92q-19 39 -19 83q0 45 18 82q16 32 45 55q31 24 70 32q10 2 28.5 2t28.5 -2q41 -7 76 -39q8 -8 9 -6q0 3 -3 29.5t-7 41.5q-14 67 -63 67
q-38 0 -49 -44l-2 -9h-3q-4 0 -68.5 8t-66.5 8.5t0 5.5q5 17 14 34q11 20 27 36q37 38 102 46q14 2 41 2t40 -2q58 -8 98 -39q88 -67 82 -245q-2 -80 -28 -132q-17 -34 -41 -58q-44 -42 -125 -48q-29 -2 -55 0zM511 102q30 10 43 42q6 16 6 43q0 29 -8 47q-5 9 -13.5 17.5
t-16.5 12.5q-29 15 -58 1q-19 -10 -29 -30q-9 -18 -10 -47q0 -29 6 -47q6 -15 17 -25q12 -11 26 -15q18 -5 37 1z" />
    <glyph glyph-name="z" unicode="z" 
d="M507 186q0 7 18 50q19 47 49 88q6 7 6 7.5t-169 0.5h-168v72v71h257h257v-58v-59l-8 -4q-65 -33 -100 -104q-15 -29 -25 -58l-2 -7h-57q-58 0 -58 1z" />
    <glyph glyph-name="bar" unicode="|" 
d="M472 157q-85 4 -136 28q-61 29 -84 89q-8 20 -11 45q-2 13 -2 44t2 44q7 50 28 82q15 23 38 38q68 45 205 42q56 -1 103 -12q62 -14 98 -50q17 -16 27 -36q14 -27 20 -61q1 -12 1 -44q0 -43 -7 -73q-20 -77 -84 -108q-71 -34 -198 -28zM560 297q27 2 46 6q62 13 62 58
q0 14 -5 25q-3 5 -9.5 12.5t-10.5 9.5l-4 2l-120 -53l-121 -52l12 -4q22 -3 52 -5h49.5t48.5 1zM485 365h2l1 1h1h1l1 1h1l1 1h1l1 1h1l1 1h1l1 1h1h1l1 1h1l1 1h1l1 1h1l1 1h1l2 1l100 44q0 3 -36 7q-32 3 -77 3q-72 0 -107 -9t-49 -30q-8 -13 -8 -28.5t8 -27.5
q5 -9 16 -16q8 -5 10.5 -4.5t116.5 50.5z" />
  </font>
</defs>
</svg>
